HIERARCHY
ROOT base
{
	OFFSET 0.000000 0.000000 0.000000
	CHANNELS 6 Xposition Yposition Zposition Xrotation Yrotation Zrotation
	JOINT torso
	{
		OFFSET 0.000000 0.000000 0.490888
		CHANNELS 3 Xrotation Yrotation Zrotation
		JOINT head
		{
			OFFSET 0.000000 0.000000 0.382645
			CHANNELS 3 Xrotation Yrotation Zrotation
			End Site
			{
				OFFSET 0.000000 0.000000 0.175109
			}
		}
		JOINT arm.upper.left
		{
			OFFSET 0.175109 0.000000 0.324275
			CHANNELS 6 Xposition Yposition Zposition Xrotation Yrotation Zrotation
			JOINT arm.lower.left
			{
				OFFSET 0.000000 0.000000 -0.223750
				CHANNELS 3 Xrotation Yrotation Zrotation
				End Site
				{
					OFFSET 0.012971 0.000000 -0.197808
				}
			}
		}
		JOINT arm.upper.right
		{
			OFFSET -0.175109 0.000000 0.324275
			CHANNELS 6 Xposition Yposition Zposition Xrotation Yrotation Zrotation
			JOINT arm.lower.right
			{
				OFFSET 0.000000 0.000000 -0.223750
				CHANNELS 3 Xrotation Yrotation Zrotation
				End Site
				{
					OFFSET -0.012971 0.000000 -0.197808
				}
			}
		}
	}
	JOINT leg.upper.left
	{
		OFFSET 0.077826 0.000000 0.494131
		CHANNELS 6 Xposition Yposition Zposition Xrotation Yrotation Zrotation
		JOINT leg.lower.left
		{
			OFFSET -0.002826 0.000000 -0.223750
			CHANNELS 3 Xrotation Yrotation Zrotation
			End Site
			{
				OFFSET 0.002826 0.000000 -0.269148
			}
		}
	}
	JOINT leg.upper.right
	{
		OFFSET -0.077826 0.000000 0.494131
		CHANNELS 6 Xposition Yposition Zposition Xrotation Yrotation Zrotation
		JOINT leg.lower.right
		{
			OFFSET 0.002826 0.000000 -0.223750
			CHANNELS 3 Xrotation Yrotation Zrotation
			End Site
			{
				OFFSET -0.002826 0.000000 -0.269148
			}
		}
	}
}
MOTION
Frames: 20
Frame Time: 0.041667
0.000000 0.000000 0.000000 -0.000000 0.000000 -0.000000 -0.000000 0.000000 -0.000000 -0.000000 0.000000 -0.000000 0.175109 0.000000 0.324275 -0.000000 0.000000 0.000000 0.000000 0.000000 -0.000000 -0.175109 0.000000 0.324275 -0.000000 0.000000 0.000000 0.000000 0.000000 -0.000000 0.077826 0.000000 0.494131 -29.510468 0.108094 0.160939 13.137181 -0.231025 -0.086173 -0.077826 0.000000 0.494131 17.120767 0.694870 0.011449 0.346952 -1.273861 -0.075174 
0.000000 0.000000 0.000000 -0.000000 0.000000 -0.000000 -0.000000 0.000000 -0.000000 -0.000000 0.000000 -0.000000 0.175109 0.000000 0.324275 -0.000000 0.000000 0.000000 0.000000 0.000000 -0.000000 -0.175109 0.000000 0.324275 -0.000000 0.000000 0.000000 0.000000 0.000000 -0.000000 0.077826 0.000000 0.494131 -27.914485 0.084436 0.144516 12.690332 -0.178028 -0.086221 -0.077826 0.000000 0.494131 15.524673 0.666555 0.016623 4.656460 -1.222341 -0.017692 
0.000000 0.000000 0.000000 -0.000000 0.000000 -0.000000 -0.000000 0.000000 -0.000000 -0.000000 0.000000 -0.000000 0.175109 0.000000 0.324275 -0.000000 0.000000 0.000000 0.000000 0.000000 -0.000000 -0.175109 0.000000 0.324275 -0.000000 0.000000 0.000000 0.000000 0.000000 -0.000000 0.077826 0.000000 0.494131 -23.078314 0.009871 0.098870 11.347264 -0.018747 -0.083876 -0.077826 0.000000 0.494131 10.688362 0.579836 0.027530 16.030787 -1.049373 0.111740 
0.000000 0.000000 0.000000 -0.000000 0.000000 -0.000000 -0.000000 0.000000 -0.000000 -0.000000 0.000000 -0.000000 0.175109 0.000000 0.324275 -0.000000 0.000000 0.000000 0.000000 0.000000 -0.000000 -0.175109 0.000000 0.324275 -0.000000 0.000000 0.000000 0.000000 0.000000 -0.000000 0.077826 0.000000 0.494131 -16.467434 -0.097872 0.046975 9.534318 0.196086 -0.074791 -0.077826 0.000000 0.494131 4.077447 0.460305 0.030577 27.399657 -0.807661 0.193324 
0.000000 0.000000 0.000000 -0.000000 0.000000 -0.000000 -0.000000 0.000000 -0.000000 -0.000000 0.000000 -0.000000 0.175109 0.000000 0.324275 -0.000000 0.000000 0.000000 0.000000 0.000000 -0.000000 -0.175109 0.000000 0.324275 -0.000000 0.000000 0.000000 0.000000 0.000000 -0.000000 0.077826 0.000000 0.494131 -10.463043 -0.200334 0.010875 7.902790 0.389070 -0.060811 -0.077826 0.000000 0.494131 -1.926921 0.352076 0.021400 31.703098 -0.620775 0.185361 
0.000000 0.000000 0.000000 -0.000000 0.000000 -0.000000 -0.000000 0.000000 -0.000000 -0.000000 0.000000 -0.000000 0.175109 0.000000 0.324275 -0.000000 0.000000 0.000000 0.000000 0.000000 -0.000000 -0.175109 0.000000 0.324275 -0.000000 0.000000 0.000000 0.000000 0.000000 -0.000000 0.077826 0.000000 0.494131 -4.245329 -0.309849 -0.014991 6.218907 0.587730 -0.040627 -0.077826 0.000000 0.494131 -8.144568 0.241614 0.000027 30.445121 -0.442667 0.138945 
0.000000 0.000000 0.000000 -0.000000 0.000000 -0.000000 -0.000000 0.000000 -0.000000 -0.000000 0.000000 -0.000000 0.175109 0.000000 0.324275 -0.000000 0.000000 0.000000 0.000000 0.000000 -0.000000 -0.175109 0.000000 0.324275 -0.000000 0.000000 0.000000 0.000000 0.000000 -0.000000 0.077826 0.000000 0.494131 3.410889 -0.447607 -0.030296 4.139642 0.832065 -0.007665 -0.077826 0.000000 0.494131 -15.800685 0.109720 -0.042506 26.732336 -0.201523 0.092567 
0.000000 0.000000 0.000000 -0.000000 0.000000 -0.000000 -0.000000 0.000000 -0.000000 -0.000000 0.000000 -0.000000 0.175109 0.000000 0.324275 -0.000000 0.000000 0.000000 0.000000 0.000000 -0.000000 -0.175109 0.000000 0.324275 -0.000000 0.000000 0.000000 0.000000 0.000000 -0.000000 0.077826 0.000000 0.494131 10.698667 -0.579628 -0.027651 2.139182 1.065819 0.032391 -0.077826 0.000000 0.494131 -23.088409 -0.009615 -0.098974 21.505633 0.039669 0.070298 
0.000000 0.000000 0.000000 -0.000000 0.000000 -0.000000 -0.000000 0.000000 -0.000000 -0.000000 0.000000 -0.000000 0.175109 0.000000 0.324275 -0.000000 0.000000 0.000000 0.000000 0.000000 -0.000000 -0.175109 0.000000 0.324275 -0.000000 0.000000 0.000000 0.000000 0.000000 -0.000000 0.077826 0.000000 0.494131 15.543243 -0.666753 -0.016620 0.790326 1.222532 0.063987 -0.077826 0.000000 0.494131 -27.932972 -0.084570 -0.144701 16.541115 0.197105 0.074753 
0.000000 0.000000 0.000000 -0.000000 0.000000 -0.000000 -0.000000 0.000000 -0.000000 -0.000000 0.000000 -0.000000 0.175109 0.000000 0.324275 -0.000000 0.000000 0.000000 0.000000 0.000000 -0.000000 -0.175109 0.000000 0.324275 -0.000000 0.000000 0.000000 0.000000 0.000000 -0.000000 0.077826 0.000000 0.494131 17.120769 -0.694870 -0.011449 0.346948 1.273860 0.075174 -0.077826 0.000000 0.494131 -29.510471 -0.108094 -0.160939 13.137179 0.231025 0.086173 
0.000000 0.000000 0.000000 -0.000000 0.000000 -0.000000 -0.000000 0.000000 -0.000000 -0.000000 0.000000 -0.000000 0.175109 0.000000 0.324275 -0.000000 0.000000 0.000000 0.000000 0.000000 -0.000000 -0.175109 0.000000 0.324275 -0.000000 0.000000 0.000000 0.000000 0.000000 -0.000000 0.077826 0.000000 0.494131 15.834605 -0.671961 -0.015721 3.255229 1.233735 0.035332 -0.077826 0.000000 0.494131 -28.224324 -0.088953 -0.147652 11.012784 0.168579 0.091487 
0.000000 0.000000 0.000000 -0.000000 0.000000 -0.000000 -0.000000 0.000000 -0.000000 -0.000000 0.000000 -0.000000 0.175109 0.000000 0.324275 -0.000000 0.000000 0.000000 0.000000 0.000000 -0.000000 -0.175109 0.000000 0.324275 -0.000000 0.000000 0.000000 0.000000 0.000000 -0.000000 0.077826 0.000000 0.494131 11.858486 -0.600585 -0.025675 11.532343 1.099474 -0.065366 -0.077826 0.000000 0.494131 -24.248235 -0.027927 -0.109342 9.578193 0.033457 0.088297 
0.000000 0.000000 0.000000 -0.000000 0.000000 -0.000000 -0.000000 0.000000 -0.000000 -0.000000 0.000000 -0.000000 0.175109 0.000000 0.324275 -0.000000 0.000000 0.000000 0.000000 0.000000 -0.000000 -0.175109 0.000000 0.324275 -0.000000 0.000000 0.000000 0.000000 0.000000 -0.000000 0.077826 0.000000 0.494131 5.804673 -0.491038 -0.031267 22.236885 0.881294 -0.160130 -0.077826 0.000000 0.494131 -18.194463 0.069698 -0.059371 8.658120 -0.155693 0.077610 
0.000000 0.000000 0.000000 -0.000000 0.000000 -0.000000 -0.000000 0.000000 -0.000000 -0.000000 0.000000 -0.000000 0.175109 0.000000 0.324275 -0.000000 0.000000 0.000000 0.000000 0.000000 -0.000000 -0.175109 0.000000 0.324275 -0.000000 0.000000 0.000000 0.000000 0.000000 -0.000000 0.077826 0.000000 0.494131 -0.698263 -0.373492 -0.024352 30.525154 0.653862 -0.191400 -0.077826 0.000000 0.494131 -11.691602 0.179725 -0.017474 7.832485 -0.354735 0.063249 
0.000000 0.000000 0.000000 -0.000000 0.000000 -0.000000 -0.000000 0.000000 -0.000000 -0.000000 0.000000 -0.000000 0.175109 0.000000 0.324275 -0.000000 0.000000 0.000000 0.000000 0.000000 -0.000000 -0.175109 0.000000 0.324275 -0.000000 0.000000 0.000000 0.000000 0.000000 -0.000000 0.077826 0.000000 0.494131 -6.185792 -0.275484 -0.008177 33.438605 0.485780 -0.168300 -0.077826 0.000000 0.494131 -6.204128 0.275724 0.008002 6.743168 -0.525922 0.047541 
0.000000 0.000000 0.000000 -0.000000 0.000000 -0.000000 -0.000000 0.000000 -0.000000 -0.000000 0.000000 -0.000000 0.175109 0.000000 0.324275 -0.000000 0.000000 0.000000 0.000000 0.000000 -0.000000 -0.175109 0.000000 0.324275 -0.000000 0.000000 0.000000 0.000000 0.000000 -0.000000 0.077826 0.000000 0.494131 -11.674181 -0.179483 0.017304 31.637419 0.329888 -0.124173 -0.077826 0.000000 0.494131 -0.715775 0.373710 0.024189 5.256241 -0.700975 0.026474 
0.000000 0.000000 0.000000 -0.000000 0.000000 -0.000000 -0.000000 0.000000 -0.000000 -0.000000 0.000000 -0.000000 0.175109 0.000000 0.324275 -0.000000 0.000000 0.000000 0.000000 0.000000 -0.000000 -0.175109 0.000000 0.324275 -0.000000 0.000000 0.000000 0.000000 0.000000 -0.000000 0.077826 0.000000 0.494131 -18.179672 -0.069476 0.059224 26.551689 0.133566 -0.085335 -0.077826 0.000000 0.494131 5.789717 0.491215 0.031133 3.484790 -0.908704 -0.004541 
0.000000 0.000000 0.000000 -0.000000 0.000000 -0.000000 -0.000000 0.000000 -0.000000 -0.000000 0.000000 -0.000000 0.175109 0.000000 0.324275 -0.000000 0.000000 0.000000 0.000000 0.000000 -0.000000 -0.175109 0.000000 0.324275 -0.000000 0.000000 0.000000 0.000000 0.000000 -0.000000 0.077826 0.000000 0.494131 -24.238675 0.028083 0.109246 20.011689 -0.058977 -0.072448 -0.077826 0.000000 0.494131 11.848765 0.600698 0.025590 1.817419 -1.103241 -0.039586 
0.000000 0.000000 0.000000 -0.000000 0.000000 -0.000000 -0.000000 0.000000 -0.000000 -0.000000 0.000000 -0.000000 0.175109 0.000000 0.324275 -0.000000 0.000000 0.000000 0.000000 0.000000 -0.000000 -0.175109 0.000000 0.324275 -0.000000 0.000000 0.000000 0.000000 0.000000 -0.000000 0.077826 0.000000 0.494131 -28.221259 0.089005 0.147621 14.933271 -0.188771 -0.080261 -0.077826 0.000000 0.494131 15.831484 0.671997 0.015695 0.708461 -1.232004 -0.066020 
0.000000 0.000000 0.000000 -0.000000 0.000000 -0.000000 -0.000000 0.000000 -0.000000 -0.000000 0.000000 -0.000000 0.175109 0.000000 0.324275 -0.000000 0.000000 0.000000 0.000000 0.000000 -0.000000 -0.175109 0.000000 0.324275 -0.000000 0.000000 0.000000 0.000000 0.000000 -0.000000 0.077826 0.000000 0.494131 -29.510468 0.108094 0.160939 13.137181 -0.231025 -0.086173 -0.077826 0.000000 0.494131 17.120767 0.694870 0.011449 0.346952 -1.273861 -0.075174 
